    <svg id="Capa_1" data-name="Capa 1" xmlns="http://www.w3.org/2000/svg" viewBox="0 0 2245.03 1233.31"><defs><style>.cls-1{fill:#1d1d1b;}</style></defs><path class="cls-1" d="M652.12,337.92q-10.93,1.17-31.24,4.29a82,82,0,0,0-36.71,15.23q-14.45,10.55-20.5,36.12t-6,75.17v396H488.11L142.92,436.32V696.38q0,48.42,6.45,73.61t20.88,36.9q10.55,8.6,33.59,15.23t36.7,9v30.46H2.34V831.1a243,243,0,0,0,35-5.66Q57,821,70.29,811.58q15.22-11.33,20.89-34.17t5.66-76.73V438.27a111.51,111.51,0,0,0-6-36.9A75.73,75.73,0,0,0,71.85,371.5a103,103,0,0,0-31.43-20.9A195,195,0,0,0,0,338.7V307.46H208.58l303,374.7V472.57q0-49.95-6.64-74.35t-21.08-36.11q-11.34-9-33.59-15.41a344.37,344.37,0,0,0-35.92-8.78V307.46H652.12Z"/><path class="cls-1" d="M1238.94,861.56H1009.33Q1000,851,985.12,834t-25.38-30.28Q918.36,842,877.15,858.62a232.26,232.26,0,0,1-87.66,16.61q-73,0-119.69-39.47T623.14,733q0-31.65,8.4-54.32t27.13-45.33q18-21.87,44.52-39.26a456.69,456.69,0,0,1,59.74-32.63q-35.14-44.55-49-75.81a156.46,156.46,0,0,1-13.87-64.09q0-56.26,46.86-92.8T859,292.23q60.91,0,98.8,28.91t37.87,76.59q0,41.43-22.64,74t-75.37,63.89q42.55,54.71,65.8,82.26t61.89,72.48q24.6-36.39,36.91-66.9t12.29-51.24q0-11.73-17.37-19t-49-13.49V510.12l157.69.13v29.68c-23.69,2.09-44.67,12-52.52,20.91-7.46,8.5-25.51,96.17-34.1,110.77A447,447,0,0,1,1048,717.37q35.92,42.21,59.16,63.12t38.07,28.73q16.79,9,42.56,14.26a367,367,0,0,0,51.16,6.84ZM939,778.33q-32.79-39.47-76.33-91.83t-81-99.64a119.1,119.1,0,0,0-29.87,47.48,169.11,169.11,0,0,0-9.18,54.52q0,52,33.19,84.82t84.34,32.82q23.82,0,41.4-6.07T939,778.33Zm-2.73-374.52q0-34.32-16.59-54t-43.16-19.69q-25.38,0-41,16.18T819.94,388.6q0,22.62,14.45,51.28t44.52,69.6q29.67-20.66,43.54-48.15A126.3,126.3,0,0,0,936.31,403.81Z"/><path class="cls-1" d="M1776.78,448.81H1747.1q-11.32-31.5-39-63.8T1653,346.88q-11.71-2.73-32.6-3.31t-34.56-.58h-80.44v213.6h57a140.28,140.28,0,0,0,39-5.08q17.57-5.07,32-19.52,9-9,18.16-31.63t11.91-39.44h29.67V692.09h-29.67q-2.34-16.4-11.91-41.2t-18.16-34.17A66.8,66.8,0,0,0,1603,597.39q-17.57-5.26-40.61-5.27h-57V751.83q0,25,3.71,39.64T1523,813.92q9.76,7.43,26.75,9.76T1596,826q13.68,0,32.8-.39a297.42,297.42,0,0,0,33.59-2.35,210.44,210.44,0,0,0,30.65-5.85q14.25-3.91,21.28-11.33,18.75-19.12,42.17-58.38T1787.32,689h28.51l-10.55,172.59H1285.54V831.1q10.93-.78,29.68-3.12t26.55-5.47q14.85-6.24,19.92-15.82t5.08-24.4V391.41q0-14.06-4.3-23.23t-20.7-16.6q-10.15-4.68-28.5-8.59t-27.73-5.07V307.46h491.24Z"/><path class="cls-1" d="M216.56,1136.32V928.39l-84.4,207.93H111.4L27,928.39v207.93H7.26v-227h32l83,203.85L205,909.33h32v227Z"/><path class="cls-1" d="M365.27,1140.07c-51.73,0-76.57-41.52-76.57-88.83,0-46.62,27.23-87.46,76.57-87.46,52.41,0,76.57,39.14,76.57,87.46C441.84,1098.55,416.66,1140.07,365.27,1140.07Zm0-158.59c-39.82,0-56.49,35-56.49,69.76,0,34,16.67,71.13,56.49,71.13s56.49-36.75,56.49-71.13C421.76,1015.51,406.11,981.48,365.27,981.48Z"/><path class="cls-1" d="M538.83,1140.07c-33.69,0-36.76-25.53-36.76-55.13V983.52H469.74V967.19h32.33V928.05l18.38-6.47v45.61h38.46v16.33H520.45v109.92c0,15.32,4.08,28.93,22.12,28.93,6.81,0,12.93-2,19.06-4.76L563,1135.3A66.26,66.26,0,0,1,538.83,1140.07Z"/><path class="cls-1" d="M668.83,1140.07c-51.73,0-76.58-41.52-76.58-88.83,0-46.62,27.23-87.46,76.58-87.46,52.41,0,76.57,39.14,76.57,87.46C745.4,1098.55,720.21,1140.07,668.83,1140.07Zm0-158.59c-39.82,0-56.5,35-56.5,69.76,0,34,16.68,71.13,56.5,71.13s56.49-36.75,56.49-71.13C725.32,1015.51,709.66,981.48,668.83,981.48Z"/><path class="cls-1" d="M866.54,985.22a44.9,44.9,0,0,0-13.27-2c-35.39,0-41.86,40.16-41.86,66.7v86.44H793v-129a393.54,393.54,0,0,0-1.71-40.15H808l1.36,31.65c6.47-17,23.48-35.06,43.9-35.06,4.77,0,9.87,0,14.64,1.36Z"/><path class="cls-1" d="M938,1140.07c-15.66,0-31.31-1.7-45.94-7.49l2-20.76A93.89,93.89,0,0,0,937,1122.37c18.37,0,36.75-9.87,36.75-30.29,0-42.88-80.65-32.33-80.65-83.38,0-31,27.22-44.92,54.11-44.92A113.31,113.31,0,0,1,987,971.27l-2,18c-10.21-4.77-24.84-7.83-36.07-7.83-17.36,0-36.08,5.44-36.08,27.22,0,32.68,81,26.89,81,83.38C993.82,1122.71,966.59,1140.07,938,1140.07Z"/><path class="cls-1" d="M1587,173c-6-11.41-12.13-22.7-17.77-34.27-2.44-5-5.53-7.69-11.19-8.89-82.57-17.53-165.66-23.16-249.54-11.49-10.91,1.52-21.68,4-32.58,5.63-2.71.41-6.76.3-8.34-1.35C1246.93,101,1226.63,79,1205,55.71c10-1.71,18.69-3.48,27.42-4.63a765.73,765.73,0,0,1,160-4.17c61.64,4.82,122.07,15.94,181.66,32.2,5.44,1.48,7.64,3.45,8.07,9.46,2,27.91,4.64,55.77,7,83.64Z"/><path class="cls-1" d="M1799.29,1233.31c-22-.86-44.09-1-66-2.7-109-8.33-213.8-34.72-315-75.78-135.8-55.11-258-131.73-365.49-231.56-3.08-2.86-6.17-5.71-8.73-10.56,13.61,0,27.22-.19,40.82.21,2,.06,4.11,2.75,6,4.47q235.5,219.83,549.27,292.79a851.42,851.42,0,0,0,155.22,21.21c1.36.06,2.71.22,4.06.33Z"/><path class="cls-1" d="M1918.32,241.55c-26-3.4-52-8.16-78.1-9.79-22-1.37-38.43-14.08-56.74-22.85-55.17-26.43-111.72-49.1-170.76-65.3-6.07-1.67-8.59-4.23-8.85-10.82-.58-14.64-2.2-29.23-3.58-45.93A1139.47,1139.47,0,0,1,1918.32,241.55Z"/><path class="cls-1" d="M1145.26,912.93h9.11c24.61,0,49.23-.17,73.84.16,3.87,0,8.63,1.29,11.44,3.75a1048.64,1048.64,0,0,0,158.61,114.52c1.4.83,2.62,2,4.67,3.51-13.29,10-26,19.83-39,29.08-1.65,1.16-5.8.07-8.12-1.2a1147.15,1147.15,0,0,1-201.14-139.21q-4.48-3.88-8.85-7.9C1145.46,915.36,1145.56,914.64,1145.26,912.93Z"/><path class="cls-1" d="M1434.34,1051.67c39.53,21.46,78.77,40.3,119.75,55s82.36,27.28,124.24,41c-3,9.41-6.4,20.1-10.17,31.94-101.12-20.79-196.4-56.43-288.91-104.11l78.47-60.33,1.28,1Z"/><path class="cls-1" d="M1713,1104.58c0,13.51.28,27-.13,40.51-.18,5.54,1.29,7.92,7,8.94,56.15,9.91,112.6,14.79,169.66,11.71,40.48-2.19,80.38-7.89,119.44-18.91,4.68-1.32,7.3-.29,9.26,4.24,3.14,7.24,6.79,14.26,10.82,22.61-113.62,32.48-227.4,30.43-343,9.6l25.25-78.72Z"/><path class="cls-1" d="M2245,1026c-50.23,71.44-118.38,114.36-198.55,142.16l-28.23-62.06,1.41-1.29c8.38,7.48,17.06,14.65,25,22.54,4.77,4.72,8.77,4.95,14.83,2.41,53.51-22.43,100.4-53.88,137.45-99.11,1.64-2,4.29-4.37,6.53-4.45C2216.66,1025.82,2229.86,1026,2245,1026Z"/><path class="cls-1" d="M1294.72,0c-2.88.45-5.78.88-8.66,1.31,3,0,6,0,9,0Z"/><path class="cls-1" d="M1206.3,143.25c13-5.07,22.93-4.26,34.27,3.68,14.9,10.43,31,19.11,46.63,28.54a18.69,18.69,0,0,0-4.88-8c-31.07-33.68-62.27-67.24-93.11-101.13-4.42-4.86-8.32-6.62-14.59-4.59-24.17,7.83-49,14-72.55,23.29-72.75,28.79-133.69,73.16-176.74,139.69-2.09,3.23-4.09,6.52-6.05,9.86h147.6C1104.88,192.68,1152.75,164.12,1206.3,143.25Z"/><path class="cls-1" d="M948,135.45c64.83-62.34,143.63-98.32,230.56-116.91C1214,11,1250.15,6.7,1286.06,1.31c-2,0-4.09,0-6.13,0-49.31,1.08-98.19,5.91-146.33,16.93C1049.87,37.44,973.21,71.11,909.48,130.1c-33.69,31.2-60,66.12-79.27,104.48h44.17Q901.71,180.21,948,135.45Z"/></svg>